<mxfile host="app.diagrams.net" modified="2024-06-18T15:48:12.963Z" agent="Mozilla/5.0 (Windows NT 10.0; Win64; x64) AppleWebKit/537.36 (KHTML, like Gecko) Chrome/125.0.0.0 Safari/537.36" etag="JXJjqXIeHdDeCF3WgTJ2" version="24.5.5" type="github">
  <diagram name="第 1 页" id="dkDrujgfrzrHCr6JKOxO">
    <mxGraphModel dx="2261" dy="746" grid="1" gridSize="10" guides="1" tooltips="1" connect="1" arrows="1" fold="1" page="1" pageScale="1" pageWidth="827" pageHeight="1169" math="0" shadow="0">
      <root>
        <mxCell id="0" />
        <mxCell id="1" parent="0" />
        <mxCell id="xjG20H1qRG9oPK2fk3ad-40" style="edgeStyle=orthogonalEdgeStyle;rounded=0;orthogonalLoop=1;jettySize=auto;html=1;entryX=0.5;entryY=0;entryDx=0;entryDy=0;" edge="1" parent="1" source="xjG20H1qRG9oPK2fk3ad-1" target="xjG20H1qRG9oPK2fk3ad-18">
          <mxGeometry relative="1" as="geometry" />
        </mxCell>
        <mxCell id="xjG20H1qRG9oPK2fk3ad-1" value="政务系统发起认证费支付" style="rounded=1;whiteSpace=wrap;html=1;" vertex="1" parent="1">
          <mxGeometry x="-236" y="205" width="170" height="60" as="geometry" />
        </mxCell>
        <mxCell id="xjG20H1qRG9oPK2fk3ad-61" style="edgeStyle=orthogonalEdgeStyle;rounded=0;orthogonalLoop=1;jettySize=auto;html=1;" edge="1" parent="1" source="xjG20H1qRG9oPK2fk3ad-3" target="xjG20H1qRG9oPK2fk3ad-58">
          <mxGeometry relative="1" as="geometry" />
        </mxCell>
        <mxCell id="xjG20H1qRG9oPK2fk3ad-3" value="信息分类" style="rounded=1;whiteSpace=wrap;html=1;" vertex="1" parent="1">
          <mxGeometry x="244" y="594" width="170" height="60" as="geometry" />
        </mxCell>
        <mxCell id="xjG20H1qRG9oPK2fk3ad-13" style="edgeStyle=orthogonalEdgeStyle;rounded=0;orthogonalLoop=1;jettySize=auto;html=1;" edge="1" parent="1" source="xjG20H1qRG9oPK2fk3ad-4">
          <mxGeometry relative="1" as="geometry">
            <mxPoint x="329" y="934" as="targetPoint" />
          </mxGeometry>
        </mxCell>
        <mxCell id="xjG20H1qRG9oPK2fk3ad-4" value="往来账" style="rounded=1;whiteSpace=wrap;html=1;" vertex="1" parent="1">
          <mxGeometry x="244" y="824" width="170" height="60" as="geometry" />
        </mxCell>
        <mxCell id="xjG20H1qRG9oPK2fk3ad-78" style="edgeStyle=orthogonalEdgeStyle;rounded=0;orthogonalLoop=1;jettySize=auto;html=1;entryX=0.75;entryY=1;entryDx=0;entryDy=0;" edge="1" parent="1" source="xjG20H1qRG9oPK2fk3ad-5" target="xjG20H1qRG9oPK2fk3ad-9">
          <mxGeometry relative="1" as="geometry" />
        </mxCell>
        <mxCell id="xjG20H1qRG9oPK2fk3ad-79" value="否" style="edgeLabel;html=1;align=center;verticalAlign=middle;resizable=0;points=[];" vertex="1" connectable="0" parent="xjG20H1qRG9oPK2fk3ad-78">
          <mxGeometry x="0.3075" y="-2" relative="1" as="geometry">
            <mxPoint as="offset" />
          </mxGeometry>
        </mxCell>
        <mxCell id="xjG20H1qRG9oPK2fk3ad-5" value="认证是否完成" style="rhombus;whiteSpace=wrap;html=1;" vertex="1" parent="1">
          <mxGeometry x="289" y="914" width="80" height="80" as="geometry" />
        </mxCell>
        <mxCell id="xjG20H1qRG9oPK2fk3ad-6" value="收入账" style="rounded=1;whiteSpace=wrap;html=1;" vertex="1" parent="1">
          <mxGeometry x="69" y="1134" width="170" height="60" as="geometry" />
        </mxCell>
        <mxCell id="xjG20H1qRG9oPK2fk3ad-39" style="edgeStyle=orthogonalEdgeStyle;rounded=0;orthogonalLoop=1;jettySize=auto;html=1;" edge="1" parent="1" source="xjG20H1qRG9oPK2fk3ad-8" target="xjG20H1qRG9oPK2fk3ad-6">
          <mxGeometry relative="1" as="geometry" />
        </mxCell>
        <mxCell id="xjG20H1qRG9oPK2fk3ad-8" value="转收入" style="rounded=1;whiteSpace=wrap;html=1;" vertex="1" parent="1">
          <mxGeometry x="94" y="1024" width="120" height="60" as="geometry" />
        </mxCell>
        <mxCell id="xjG20H1qRG9oPK2fk3ad-69" style="edgeStyle=orthogonalEdgeStyle;rounded=0;orthogonalLoop=1;jettySize=auto;html=1;entryX=1;entryY=0.5;entryDx=0;entryDy=0;" edge="1" parent="1" source="xjG20H1qRG9oPK2fk3ad-9" target="xjG20H1qRG9oPK2fk3ad-67">
          <mxGeometry relative="1" as="geometry" />
        </mxCell>
        <mxCell id="xjG20H1qRG9oPK2fk3ad-9" value="发起退费" style="rounded=1;whiteSpace=wrap;html=1;" vertex="1" parent="1">
          <mxGeometry x="594" y="175" width="120" height="60" as="geometry" />
        </mxCell>
        <mxCell id="xjG20H1qRG9oPK2fk3ad-29" style="edgeStyle=orthogonalEdgeStyle;rounded=0;orthogonalLoop=1;jettySize=auto;html=1;" edge="1" parent="1" source="xjG20H1qRG9oPK2fk3ad-18" target="xjG20H1qRG9oPK2fk3ad-27">
          <mxGeometry relative="1" as="geometry" />
        </mxCell>
        <mxCell id="xjG20H1qRG9oPK2fk3ad-18" value="银联对账（t+1）" style="rounded=1;whiteSpace=wrap;html=1;" vertex="1" parent="1">
          <mxGeometry x="-236" y="474" width="170" height="50" as="geometry" />
        </mxCell>
        <mxCell id="xjG20H1qRG9oPK2fk3ad-28" style="edgeStyle=orthogonalEdgeStyle;rounded=0;orthogonalLoop=1;jettySize=auto;html=1;entryX=0;entryY=0.5;entryDx=0;entryDy=0;" edge="1" parent="1" source="xjG20H1qRG9oPK2fk3ad-27" target="xjG20H1qRG9oPK2fk3ad-3">
          <mxGeometry relative="1" as="geometry" />
        </mxCell>
        <mxCell id="xjG20H1qRG9oPK2fk3ad-35" value="是" style="edgeLabel;html=1;align=center;verticalAlign=middle;resizable=0;points=[];" vertex="1" connectable="0" parent="xjG20H1qRG9oPK2fk3ad-28">
          <mxGeometry x="-0.0648" y="-2" relative="1" as="geometry">
            <mxPoint as="offset" />
          </mxGeometry>
        </mxCell>
        <mxCell id="xjG20H1qRG9oPK2fk3ad-65" style="edgeStyle=orthogonalEdgeStyle;rounded=0;orthogonalLoop=1;jettySize=auto;html=1;entryX=0;entryY=0.5;entryDx=0;entryDy=0;" edge="1" parent="1" source="xjG20H1qRG9oPK2fk3ad-27" target="xjG20H1qRG9oPK2fk3ad-6">
          <mxGeometry relative="1" as="geometry">
            <Array as="points">
              <mxPoint x="-151" y="1164" />
            </Array>
          </mxGeometry>
        </mxCell>
        <mxCell id="xjG20H1qRG9oPK2fk3ad-66" value="否" style="edgeLabel;html=1;align=center;verticalAlign=middle;resizable=0;points=[];" vertex="1" connectable="0" parent="xjG20H1qRG9oPK2fk3ad-65">
          <mxGeometry x="-0.5306" relative="1" as="geometry">
            <mxPoint as="offset" />
          </mxGeometry>
        </mxCell>
        <mxCell id="xjG20H1qRG9oPK2fk3ad-27" value="是否支付单" style="rhombus;whiteSpace=wrap;html=1;" vertex="1" parent="1">
          <mxGeometry x="-198.5" y="584" width="95" height="80" as="geometry" />
        </mxCell>
        <mxCell id="xjG20H1qRG9oPK2fk3ad-31" style="edgeStyle=orthogonalEdgeStyle;rounded=0;orthogonalLoop=1;jettySize=auto;html=1;entryX=0.417;entryY=-0.017;entryDx=0;entryDy=0;entryPerimeter=0;" edge="1" parent="1" source="xjG20H1qRG9oPK2fk3ad-5" target="xjG20H1qRG9oPK2fk3ad-8">
          <mxGeometry relative="1" as="geometry" />
        </mxCell>
        <mxCell id="xjG20H1qRG9oPK2fk3ad-42" style="edgeStyle=orthogonalEdgeStyle;rounded=0;orthogonalLoop=1;jettySize=auto;html=1;" edge="1" parent="1" source="xjG20H1qRG9oPK2fk3ad-41" target="xjG20H1qRG9oPK2fk3ad-1">
          <mxGeometry relative="1" as="geometry" />
        </mxCell>
        <mxCell id="xjG20H1qRG9oPK2fk3ad-76" style="edgeStyle=orthogonalEdgeStyle;rounded=0;orthogonalLoop=1;jettySize=auto;html=1;entryX=0;entryY=0.5;entryDx=0;entryDy=0;" edge="1" parent="1" source="xjG20H1qRG9oPK2fk3ad-41" target="xjG20H1qRG9oPK2fk3ad-43">
          <mxGeometry relative="1" as="geometry">
            <Array as="points">
              <mxPoint x="170" y="80" />
              <mxPoint x="170" y="80" />
            </Array>
          </mxGeometry>
        </mxCell>
        <mxCell id="xjG20H1qRG9oPK2fk3ad-41" value="开始" style="ellipse;whiteSpace=wrap;html=1;" vertex="1" parent="1">
          <mxGeometry x="-211" y="30" width="120" height="80" as="geometry" />
        </mxCell>
        <mxCell id="xjG20H1qRG9oPK2fk3ad-44" style="edgeStyle=orthogonalEdgeStyle;rounded=0;orthogonalLoop=1;jettySize=auto;html=1;" edge="1" parent="1" source="xjG20H1qRG9oPK2fk3ad-43" target="xjG20H1qRG9oPK2fk3ad-9">
          <mxGeometry relative="1" as="geometry" />
        </mxCell>
        <mxCell id="xjG20H1qRG9oPK2fk3ad-43" value="重复支付" style="rounded=1;whiteSpace=wrap;html=1;" vertex="1" parent="1">
          <mxGeometry x="594" y="50" width="120" height="60" as="geometry" />
        </mxCell>
        <mxCell id="xjG20H1qRG9oPK2fk3ad-52" style="edgeStyle=orthogonalEdgeStyle;rounded=0;orthogonalLoop=1;jettySize=auto;html=1;entryX=0.5;entryY=0;entryDx=0;entryDy=0;" edge="1" parent="1" source="xjG20H1qRG9oPK2fk3ad-49" target="xjG20H1qRG9oPK2fk3ad-51">
          <mxGeometry relative="1" as="geometry" />
        </mxCell>
        <mxCell id="xjG20H1qRG9oPK2fk3ad-53" value="是" style="edgeLabel;html=1;align=center;verticalAlign=middle;resizable=0;points=[];" vertex="1" connectable="0" parent="xjG20H1qRG9oPK2fk3ad-52">
          <mxGeometry x="-0.4909" y="4" relative="1" as="geometry">
            <mxPoint as="offset" />
          </mxGeometry>
        </mxCell>
        <mxCell id="xjG20H1qRG9oPK2fk3ad-56" style="edgeStyle=orthogonalEdgeStyle;rounded=0;orthogonalLoop=1;jettySize=auto;html=1;entryX=0.5;entryY=0;entryDx=0;entryDy=0;" edge="1" parent="1" source="xjG20H1qRG9oPK2fk3ad-49" target="xjG20H1qRG9oPK2fk3ad-3">
          <mxGeometry relative="1" as="geometry" />
        </mxCell>
        <mxCell id="xjG20H1qRG9oPK2fk3ad-57" value="否" style="edgeLabel;html=1;align=center;verticalAlign=middle;resizable=0;points=[];" vertex="1" connectable="0" parent="xjG20H1qRG9oPK2fk3ad-56">
          <mxGeometry x="-0.3" y="-4" relative="1" as="geometry">
            <mxPoint as="offset" />
          </mxGeometry>
        </mxCell>
        <mxCell id="xjG20H1qRG9oPK2fk3ad-49" value="是否信息分类" style="rhombus;whiteSpace=wrap;html=1;" vertex="1" parent="1">
          <mxGeometry x="79" y="265" width="80" height="80" as="geometry" />
        </mxCell>
        <mxCell id="xjG20H1qRG9oPK2fk3ad-54" style="edgeStyle=orthogonalEdgeStyle;rounded=0;orthogonalLoop=1;jettySize=auto;html=1;" edge="1" parent="1" source="xjG20H1qRG9oPK2fk3ad-51" target="xjG20H1qRG9oPK2fk3ad-18">
          <mxGeometry relative="1" as="geometry" />
        </mxCell>
        <mxCell id="xjG20H1qRG9oPK2fk3ad-51" value="银联退费" style="rounded=1;whiteSpace=wrap;html=1;" vertex="1" parent="1">
          <mxGeometry x="34" y="469" width="170" height="60" as="geometry" />
        </mxCell>
        <mxCell id="xjG20H1qRG9oPK2fk3ad-59" value="是" style="edgeStyle=orthogonalEdgeStyle;rounded=0;orthogonalLoop=1;jettySize=auto;html=1;entryX=0.5;entryY=0;entryDx=0;entryDy=0;" edge="1" parent="1" target="xjG20H1qRG9oPK2fk3ad-4">
          <mxGeometry relative="1" as="geometry">
            <mxPoint x="329" y="774" as="sourcePoint" />
          </mxGeometry>
        </mxCell>
        <mxCell id="xjG20H1qRG9oPK2fk3ad-62" style="edgeStyle=orthogonalEdgeStyle;rounded=0;orthogonalLoop=1;jettySize=auto;html=1;" edge="1" parent="1" source="xjG20H1qRG9oPK2fk3ad-58" target="xjG20H1qRG9oPK2fk3ad-9">
          <mxGeometry relative="1" as="geometry">
            <mxPoint x="404" y="255" as="targetPoint" />
            <Array as="points">
              <mxPoint x="620" y="734" />
            </Array>
          </mxGeometry>
        </mxCell>
        <mxCell id="xjG20H1qRG9oPK2fk3ad-63" value="否" style="edgeLabel;html=1;align=center;verticalAlign=middle;resizable=0;points=[];" vertex="1" connectable="0" parent="xjG20H1qRG9oPK2fk3ad-62">
          <mxGeometry x="-0.3929" y="-4" relative="1" as="geometry">
            <mxPoint x="-4" y="-108" as="offset" />
          </mxGeometry>
        </mxCell>
        <mxCell id="xjG20H1qRG9oPK2fk3ad-58" value="是否支付单" style="rhombus;whiteSpace=wrap;html=1;" vertex="1" parent="1">
          <mxGeometry x="281.5" y="694" width="95" height="80" as="geometry" />
        </mxCell>
        <mxCell id="xjG20H1qRG9oPK2fk3ad-70" style="edgeStyle=orthogonalEdgeStyle;rounded=0;orthogonalLoop=1;jettySize=auto;html=1;" edge="1" parent="1" source="xjG20H1qRG9oPK2fk3ad-67" target="xjG20H1qRG9oPK2fk3ad-49">
          <mxGeometry relative="1" as="geometry" />
        </mxCell>
        <mxCell id="xjG20H1qRG9oPK2fk3ad-71" value="是" style="edgeLabel;html=1;align=center;verticalAlign=middle;resizable=0;points=[];" vertex="1" connectable="0" parent="xjG20H1qRG9oPK2fk3ad-70">
          <mxGeometry x="-0.2681" y="2" relative="1" as="geometry">
            <mxPoint as="offset" />
          </mxGeometry>
        </mxCell>
        <mxCell id="xjG20H1qRG9oPK2fk3ad-77" style="edgeStyle=orthogonalEdgeStyle;rounded=0;orthogonalLoop=1;jettySize=auto;html=1;exitX=0.5;exitY=1;exitDx=0;exitDy=0;entryX=1;entryY=0.5;entryDx=0;entryDy=0;" edge="1" parent="1" source="xjG20H1qRG9oPK2fk3ad-67" target="xjG20H1qRG9oPK2fk3ad-6">
          <mxGeometry relative="1" as="geometry">
            <mxPoint x="481" y="234.99842105263156" as="sourcePoint" />
            <mxPoint x="260" y="1190.63" as="targetPoint" />
            <Array as="points">
              <mxPoint x="478" y="245" />
              <mxPoint x="481" y="245" />
              <mxPoint x="481" y="1164" />
            </Array>
          </mxGeometry>
        </mxCell>
        <mxCell id="xjG20H1qRG9oPK2fk3ad-67" value="是否线上退费" style="rhombus;whiteSpace=wrap;html=1;" vertex="1" parent="1">
          <mxGeometry x="435" y="165" width="95" height="80" as="geometry" />
        </mxCell>
      </root>
    </mxGraphModel>
  </diagram>
</mxfile>
